<svg xmlns="http://www.w3.org/2000/svg" x="0px" y="0px"
width="32" height="32"
viewBox="0 0 172 172"
style=" fill:#000000;"><g fill="none" fill-rule="nonzero" stroke="none" stroke-width="1" stroke-linecap="butt" stroke-linejoin="miter" stroke-miterlimit="10" stroke-dasharray="" stroke-dashoffset="0" font-family="none" font-weight="none" font-size="none" text-anchor="none" style="mix-blend-mode: normal"><path d="M0,172v-172h172v172z" fill="none"></path><g fill="#f7f7f7"><path d="M16.125,32.25v107.5h139.75v-107.5zM26.875,43h118.25v72.89844l-41.82422,-41.82422l-3.86328,-3.69531l-3.86328,3.69531l-12.26172,12.26172l-20.32422,-20.32422l-3.86328,-3.69531l-3.86328,3.69531l-28.38672,28.38672zM120.9375,48.375c-7.34863,0 -13.4375,6.08887 -13.4375,13.4375c0,7.34864 6.08887,13.4375 13.4375,13.4375c7.34864,0 13.4375,-6.08886 13.4375,-13.4375c0,-7.34863 -6.08886,-13.4375 -13.4375,-13.4375zM120.9375,59.125c1.55371,0 2.6875,1.13379 2.6875,2.6875c0,1.55371 -1.13379,2.6875 -2.6875,2.6875c-1.55371,0 -2.6875,-1.13379 -2.6875,-2.6875c0,-1.55371 1.13379,-2.6875 2.6875,-2.6875zM59.125,77.60156l16.46094,16.46094l-34.9375,34.9375h-13.77344v-19.14844zM99.4375,85.66406l43.33594,43.33594h-86.67187z"></path></g></g></svg>